<svg height="512pt" viewBox="0 0 511 512" width="512pt" xmlns="http://www.w3.org/2000/svg"><path d="m310.503906 222c-48.523437 0-88 39.476562-88 88s39.476563 88 88 88c48.523438 0 88-39.476562 88-88s-39.476562-88-88-88zm0 156c-37.496094 0-68-30.503906-68-68s30.503906-68 68-68 68 30.503906 68 68-30.503906 68-68 68zm0 0"/><path d="m502.566406 454.113281-79.363281-79.367187c11-19.074219 17.300781-41.1875 17.300781-64.746094 0-34.769531-13.722656-66.390625-36.03125-89.742188v-112.269531c-.007812 0-.015625 0-.023437 0 0-2.601562-.992188-5.15625-2.902344-7.070312l-97.988281-97.988281c-1.914063-1.914063-4.472656-2.9023442-7.074219-2.9023442 0-.0117188 0-.015625.003906-.0273438h-265.988281c-16.542969 0-30 13.457031-30 30v452c0 16.542969 13.457031 30 30 30h343.976562c16.539063 0 30-13.457031 30-30v-30.070312l50.136719 50.140624c6.609375 6.609376 15.292969 9.914063 23.980469 9.914063 8.683594 0 17.367188-3.304687 23.976562-9.914063 13.21875-13.222656 13.21875-34.734374-.003906-47.957031zm-192.0625-34.113281c-60.652344 0-110-49.347656-110-110s49.347656-110 110-110 110 49.347656 110 110-49.347656 110-110 110zm-4.015625-385.855469 63.84375 63.847657h-53.84375c-5.515625 0-10-4.488282-10-10zm77.988281 447.855469c0 5.515625-4.488281 10-10 10h-343.976562c-5.515625 0-10-4.484375-10-10v-452c0-5.515625 4.484375-10 10-10h255.988281v67.988281c0 16.542969 13.457031 30 30 30h67.984375v85.171875c-21.007812-14.59375-46.503906-23.160156-73.96875-23.160156-71.683594 0-130 58.316406-130 130 0 13.996094 2.234375 27.484375 6.347656 40.128906h-122.199218c-5.519532 0-10 4.476563-10 10 0 5.519532 4.480468 10 10 10h127.695312c.941406 0 1.855469-.140625 2.71875-.386718 21.671875 41.703124 65.28125 70.257812 115.4375 70.257812 23.554688 0 45.667969-6.300781 64.742188-17.300781l9.230468 9.230469zm103.949219 5.925781c-5.421875 5.425781-14.246093 5.425781-19.667969 0l-76.738281-76.738281c7.234375-5.839844 13.828125-12.433594 19.667969-19.667969l76.738281 76.734375c5.425781 5.425782 5.425781 14.25 0 19.671875zm0 0"/><path d="m310.503906 265.003906c-5.523437 0-10 4.476563-10 10 0 5.523438 4.476563 10 10 10 13.78125 0 24.996094 11.214844 24.996094 24.996094 0 5.523438 4.476562 10 10 10s10-4.476562 10-10c0-24.8125-20.183594-44.996094-44.996094-44.996094zm0 0"/><path d="m154.648438 280.792969h-89.996094c-5.519532 0-10 4.476562-10 10 0 5.523437 4.480468 10 10 10h89.996094c5.523437 0 10-4.476563 10-10 0-5.523438-4.476563-10-10-10zm0 0"/><path d="m160.574219 211.460938h-95.921875c-5.519532 0-10 4.476562-10 10 0 5.519531 4.480468 10 10 10h95.921875c5.523437 0 10-4.480469 10-10 0-5.523438-4.476563-10-10-10zm0 0"/><path d="m190.5 419.460938c-2.632812 0-5.210938 1.066406-7.070312 2.929687-1.859376 1.859375-2.929688 4.4375-2.929688 7.070313 0 2.628906 1.070312 5.210937 2.929688 7.066406 1.859374 1.863281 4.4375 2.933594 7.070312 2.933594 2.628906 0 5.210938-1.070313 7.078125-2.933594 1.859375-1.855469 2.921875-4.4375 2.921875-7.066406 0-2.632813-1.0625-5.210938-2.921875-7.070313-1.867187-1.863281-4.449219-2.929687-7.078125-2.929687zm0 0"/><path d="m149.429688 419.460938h-84.777344c-5.519532 0-10 4.476562-10 10 0 5.519531 4.480468 10 10 10h84.777344c5.519531 0 10-4.480469 10-10 0-5.523438-4.476563-10-10-10zm0 0"/><path d="m64.648438 162.128906c2.640624 0 5.210937-1.070312 7.070312-2.929687 1.871094-1.871094 2.929688-4.4375 2.929688-7.070313 0-2.628906-1.058594-5.207031-2.929688-7.078125-1.859375-1.859375-4.441406-2.921875-7.070312-2.921875-2.628907 0-5.199219 1.0625-7.070313 2.921875-1.859375 1.859375-2.929687 4.4375-2.929687 7.078125 0 2.632813 1.070312 5.210938 2.929687 7.070313 1.863281 1.859375 4.441406 2.929687 7.070313 2.929687zm0 0"/><path d="m256.5 142.128906h-149.460938c-5.519531 0-10 4.476563-10 10 0 5.519532 4.480469 10 10 10h149.460938c5.523438 0 10-4.480468 10-10 0-5.523437-4.476562-10-10-10zm0 0"/><path d="m64.652344 92.792969h191.847656c5.523438 0 10-4.476563 10-10 0-5.523438-4.476562-10-10-10h-191.847656c-5.519532 0-10 4.476562-10 10 0 5.523437 4.480468 10 10 10zm0 0"/></svg>