<svg id="Layer_1_1_" enable-background="new 0 0 64 64" height="512" viewBox="0 0 64 64" width="512" xmlns="http://www.w3.org/2000/svg"><path d="m9 35h1v22c0 1.654 1.346 3 3 3h21 24c1.654 0 3-1.346 3-3v-10c0-1.654-1.346-3-3-3h-20v-11c0-1.654-1.346-3-3-3h-22c-1.654 0-3 1.346-3 3h-1c-2.757 0-5-2.243-5-5s2.243-5 5-5h3c.552 0 1-.448 1-1v-3.5c0-5.238 4.262-9.5 9.5-9.5 2.556 0 4.955 1.003 6.755 2.824.23.233.563.338.884.282.323-.057.598-.269.735-.567 1.549-3.365 4.935-5.539 8.626-5.539 4.01 0 7.605 2.545 8.947 6.334.141.399.519.666.943.666h.61c5.514 0 10 4.486 10 10s-4.486 10-10 10h-6v2h6c6.617 0 12-5.383 12-12 0-6.593-5.343-11.96-11.927-12-1.794-4.215-5.956-7-10.573-7-4.022 0-7.743 2.13-9.814 5.523-2.033-1.636-4.54-2.523-7.186-2.523-6.341 0-11.5 5.159-11.5 11.5v2.5h-2c-3.86 0-7 3.14-7 7s3.14 7 7 7zm49 11c.551 0 1 .449 1 1v10c0 .551-.449 1-1 1h-8-16c-.551 0-1-.449-1-1v-10c0-.551.449-1 1-1h8zm-46-13c0-.551.449-1 1-1h22c.551 0 1 .449 1 1v11h-2c-1.654 0-3 1.346-3 3v10c0 .352.072.686.184 1h-18.184c-.551 0-1-.449-1-1z"/><path d="m50 16v2c2.206 0 4 1.794 4 4h2c0-3.309-2.691-6-6-6z"/><path d="m54 24h2v2h-2z"/><path d="m38.929 51h14.142v2h-14.142z" transform="matrix(.707 -.707 .707 .707 -23.297 47.757)"/><path d="m53 55c0-1.654-1.346-3-3-3s-3 1.346-3 3 1.346 3 3 3 3-1.346 3-3zm-3 1c-.551 0-1-.449-1-1s.449-1 1-1 1 .449 1 1-.449 1-1 1z"/><path d="m39 49c0 1.654 1.346 3 3 3s3-1.346 3-3-1.346-3-3-3-3 1.346-3 3zm3-1c.551 0 1 .449 1 1s-.449 1-1 1-1-.449-1-1 .449-1 1-1z"/><path d="m16 41h13v-2h-13v-3h16v3h-1v2h1c1.103 0 2-.897 2-2v-3c0-1.103-.897-2-2-2h-16c-1.103 0-2 .897-2 2v3c0 1.103.897 2 2 2z"/><path d="m19 43h-2v2h-2v2h2v2h2v-2h2v-2h-2z"/><path d="m19.414 50.172-1.414 1.414-1.414-1.414-1.414 1.414 1.414 1.414-1.414 1.414 1.414 1.414 1.414-1.414 1.414 1.414 1.414-1.414-1.414-1.414 1.414-1.414z"/><path d="m23 45h6v2h-6z"/><path d="m23 52h6v2h-6z"/><path d="m25 50h2v1h-2z"/><path d="m25 55h2v1h-2z"/><path d="m40 33h2v2h-2z"/></svg>